<?xml version="1.0" encoding="UTF-8"?><svg id="_レイヤー_2" xmlns="http://www.w3.org/2000/svg" viewBox="0 0 87.06 28.21"><defs><style>.cls-1{fill:#fff;}.cls-2{isolation:isolate;}</style></defs><g id="_レイヤー_1-2"><g class="cls-2"><path class="cls-1" d="M0,16.06V.35H1.85v15.71H0Z"/><path class="cls-1" d="M16.48,.35h1.83v15.71h-2.25L10.86,7.96c-1.5-2.38-2.59-4.16-3.27-5.32,.04,2.06,.07,4.77,.07,8.12v5.29h-1.83V.35h2.25l5.21,8.1c1.5,2.38,2.59,4.16,3.27,5.32-.04-2.06-.07-4.77-.07-8.12V.35Z"/><path class="cls-1" d="M33.49,.35l5.94,7.86-5.94,7.85h-2.27l2.78-3.64c.99-1.31,1.85-2.44,2.6-3.4h-13.24v-1.68h13.22c-.46-.59-.89-1.15-1.3-1.69-.41-.54-.72-.94-.93-1.2-.21-.26-.32-.42-.35-.46L31.22,.35h2.27Z"/></g><g class="cls-2"><path class="cls-1" d="M44.17,15.32c-.96-.73-1.51-1.85-1.64-3.36h.24c.15,1.44,.68,2.5,1.61,3.19,.93,.68,2.32,1.03,4.17,1.03,1.71,0,3.01-.36,3.91-1.08s1.35-1.69,1.35-2.91c0-1.07-.34-1.92-1.01-2.54-.68-.62-1.82-1.07-3.44-1.37l-1.85-.33c-1.57-.29-2.71-.77-3.4-1.42s-1.04-1.54-1.04-2.66c0-1.18,.45-2.12,1.35-2.81,.9-.7,2.17-1.05,3.82-1.05s3.02,.36,3.93,1.09c.91,.73,1.4,1.72,1.46,2.99h-.26c-.07-1.22-.54-2.17-1.41-2.84-.87-.67-2.1-1-3.71-1s-2.77,.33-3.62,.98c-.85,.65-1.28,1.53-1.28,2.64s.33,1.91,.99,2.51c.66,.6,1.76,1.04,3.29,1.32l1.81,.33c1.71,.29,2.91,.77,3.61,1.43,.7,.66,1.05,1.57,1.05,2.71,0,1.29-.47,2.32-1.42,3.09-.95,.76-2.31,1.15-4.07,1.15-1.97,0-3.44-.36-4.4-1.09Z"/><path class="cls-1" d="M57.27,16.06V.35h.26v15.71h-.26Z"/><path class="cls-1" d="M65.83,.35c2.49,0,4.38,.69,5.69,2.07,1.31,1.38,1.96,3.31,1.96,5.78s-.67,4.42-2.02,5.79c-1.35,1.38-3.32,2.06-5.92,2.06h-4.04V.35h4.32Zm-.29,15.47c2.53,0,4.44-.67,5.74-2,1.29-1.33,1.94-3.2,1.94-5.62s-.62-4.3-1.88-5.63c-1.25-1.32-3.1-1.99-5.54-1.99h-4.04V15.82h3.77Z"/><path class="cls-1" d="M77.17,15.82h9.88v.24h-10.15V.35h9.93v.24h-9.66V7.7h8.78v.24h-8.78v7.88Z"/></g><g><path class="cls-1" d="M25.05,25.91c.04-.14,.03-.21,.08-.21,0,0,.02,0,.04,0,.1,.02,.58,.19,.58,.29,0,.03-.02,.06-.07,.11-.11,.09-.15,.16-.19,.25-.17,.37-.48,.92-.8,1.35,0,0-.22-.23-.5-.4,.42-.42,.8-1.15,.87-1.39Zm6.14-3.41c-.62-.02-1.41-.02-2.19-.02,.09,.53,.26,1.2,.5,1.67,.28-.37,.5-.98,.53-1.25,0-.08,0-.14,.06-.14,.05,0,.62,.22,.62,.3,0,.03-.03,.06-.07,.1-.08,.07-.14,.15-.15,.2-.19,.48-.39,.88-.68,1.25,.28,.38,.56,.58,.66,.58,.15,0,.31-.32,.38-1.35,.27,.19,.54,.3,.54,.3-.09,.71-.24,1.67-.86,1.67-.32,0-.68-.24-1.11-.77-.23,.22-.52,.43-.87,.66,0,0-.13-.29-.35-.5,.38-.18,.67-.39,.92-.62-.32-.56-.56-1.33-.67-2.11h-2.82v.62c0,1.49-.36,2.09-.98,2.75,0,0-.18-.3-.45-.51,.64-.56,.84-1.09,.84-2.24v-1.11h3.32c-.02-.24-.05-.44-.08-.55-.02-.08-.03-.13-.03-.17,0-.03,.02-.05,.06-.05h.05c.62,.08,.67,.08,.67,.15,0,.03-.02,.08-.04,.14-.04,.1-.06,.18-.06,.29,0,.05,0,.11,0,.18,.5,0,1.11-.02,1.55-.03-.34-.15-.72-.28-1.11-.4l.36-.33c.38,.1,.72,.22,1.14,.4l-.28,.32c.21,0,.4,0,.58-.02v.59Zm-2.98,.91c-.4-.02-.78-.04-1.15-.04s-.75,.02-1.16,.04v-.56c.42,.03,.79,.06,1.16,.06s.75-.02,1.15-.06v.56Zm-2.23,1.99v-1.58h2.13v1.58h-2.13Zm.15,1.81c0-.14,0-.31,0-.47,0-.28,0-.55-.02-.68-.02-.1-.04-.16-.04-.19s.02-.05,.06-.05h.03c.69,.06,.7,.09,.7,.14,0,.04-.03,.09-.06,.15-.02,.07-.06,.19-.06,.6,0,.14,0,.29,0,.42,0,.32,.14,.33,1.14,.33,.28,0,.57,0,.82-.02,.42-.03,.46-.18,.58-1.01,.26,.21,.54,.32,.54,.32-.19,.94-.34,1.22-.89,1.24-.34,.02-.67,.02-1.02,.02-1.33,0-1.79,0-1.79-.76v-.03Zm1.45-2.92h-1.07v.63h1.07v-.63Zm.62,2.63c-.29-.41-.62-.77-.99-1.07l.39-.31c.37,.28,.71,.6,1.05,1l-.46,.38Zm2.7,.68c-.33-.55-.71-1.01-1.13-1.45l.43-.34c.46,.45,.82,.84,1.18,1.38l-.48,.42Z"/><path class="cls-1" d="M32.46,22.86c0-.08-.02-.13-.02-.16,0-.04,.02-.06,.06-.06h.02c.14,.02,.57,.08,.57,.18,0,.03-.02,.06-.06,.12-.06,.08-.06,.17-.07,.29-.03,.39-.14,1.25-.26,1.7,0,0-.24-.16-.5-.24,.15-.53,.26-1.34,.26-1.75v-.08Zm.69,5.34c.04-1.29,.06-2.94,.06-4.29s-.02-2.31-.06-2.48c-.02-.1-.06-.16-.06-.2,0-.03,.02-.05,.07-.05h.02c.71,.06,.74,.1,.74,.14,0,.04-.03,.1-.07,.16-.06,.09-.08,.24-.08,2.43,0,1.28,.02,2.92,.06,4.29h-.67Zm6.26-4.12c-.79-.02-1.67-.04-2.53-.04s-1.71,.02-2.44,.04v-.47l-.27,.1c-.08-.54-.18-.85-.36-1.25l.43-.18c.2,.4,.32,.81,.39,1.25,.58,.02,1.21,.03,1.84,.04,0-.14,0-.3,0-.46-.54,0-1.03,.02-1.52,.04v-.54c.5,.03,.98,.06,1.53,.06v-.38c-.69,0-1.29,.02-1.8,.04v-.56c.51,.03,1.11,.06,1.79,.06,0-.18-.02-.31-.03-.38-.02-.1-.05-.18-.05-.21s0-.04,.05-.04h.04c.62,.06,.65,.1,.65,.15,0,.03-.02,.08-.06,.15-.05,.1-.06,.2-.06,.31,.71,0,1.43-.02,1.97-.06v.56c-.54-.02-1.27-.04-1.97-.04v.38c.57,0,1.18-.02,1.71-.06v.54c-.53-.02-1.14-.04-1.7-.04v.46c.8,0,1.64-.02,2.39-.05v.56Zm-1.29,2.82h-2.58c0,.46,.02,.93,.04,1.31h-.67c.04-.78,.05-2.19,.05-3.04v-.71h3.73v2.86c0,.68-.25,.89-1.2,.89-.16,0-.34,0-.54-.02,0,0-.02-.34-.15-.56,.29,.02,.51,.02,.69,.02,.54,0,.64-.09,.64-.34v-.42Zm0-1.95h-2.59v.5h2.59v-.5Zm0,.96h-2.59v.53h2.59v-.53Z"/><path class="cls-1" d="M43.79,26.98c1.64,0,2.46-1.11,2.46-2.24,0-1.01-.68-2.03-2.04-2.19-.31,2.26-1.34,4.97-2.4,4.97-.58,0-1.33-.92-1.33-2.2,0-1.57,1.09-3.32,3.3-3.32,1.99,0,3.11,1.3,3.11,2.8,0,1.34-.94,2.7-2.79,2.9-.07-.22-.21-.47-.39-.71h.08Zm-2.7-1.7c0,.83,.38,1.51,.73,1.51,.15,0,.3-.1,.45-.32,.59-.91,1.15-2.52,1.32-3.95-1.63,.11-2.5,1.49-2.5,2.76Z"/><path class="cls-1" d="M55.1,24.87c-.9-.02-1.98-.03-2.92-.04,.13,.44,.32,.88,.56,1.23,.39-.26,.85-.68,.97-.92,.02-.05,.04-.08,.06-.08,.04,0,.34,.17,.54,.31,.03,.02,.05,.05,.05,.07,0,.04-.04,.07-.1,.1-.11,.05-.14,.06-.21,.13-.25,.24-.62,.56-1,.83,.47,.5,1.19,.86,2.13,1.07-.24,.3-.35,.64-.35,.64-2-.75-2.67-1.49-3.25-3.37h-.2c-.26,.3-.62,.63-.98,.89v1.5c.56-.1,1.19-.24,1.77-.39v.58c-.92,.23-2.03,.46-2.79,.58-.09,.02-.22,.06-.3,.12-.06,.06-.11,.09-.15,.09-.1,0-.23-.48-.28-.71,0-.02,0-.04,0-.06,0-.03,.02-.04,.05-.04,.02,0,.06,0,.1,0h.06c.19,0,.54-.03,.95-.1v-1.24c-.46,.26-.96,.49-1.51,.68,0,0-.1-.32-.31-.56,1.2-.34,2.07-.8,2.67-1.36-.85,0-1.8,.02-2.59,.04v-.62c.99,.03,2.07,.06,3.14,.06v-.75c-.75,0-1.47,0-2.12,.03v-.58c.66,.03,1.38,.05,2.12,.05v-.62c-.85,0-1.7,.02-2.59,.04v-.61c.89,.04,1.73,.06,2.58,.06,0-.22-.02-.39-.03-.46-.02-.1-.05-.17-.05-.21,0-.03,.02-.04,.06-.04h.02c.73,.02,.73,.1,.73,.13,0,.04-.02,.09-.06,.16-.06,.14-.06,.22-.06,.42,.88,0,1.79-.02,2.74-.06v.61c-.96-.02-1.86-.04-2.74-.04v.62c.75,0,1.51-.02,2.21-.05v.58c-.7-.02-1.46-.03-2.21-.03v.75c1.11,0,2.23-.02,3.29-.06v.62Z"/><path class="cls-1" d="M58.88,25.97c-.84,.42-1.66,.78-2.18,.96-.1,.03-.21,.1-.27,.18-.06,.07-.1,.12-.15,.12-.1,0-.28-.65-.28-.74,0-.04,.03-.04,.14-.05,.19-.02,.58-.13,1.03-.3v-1.93c-.3,0-.61,.02-.92,.03v-.6c.31,.03,.62,.05,.92,.06v-1.44c-.36,0-.71,0-1.03,.03v-.6c.42,.03,.88,.06,1.34,.06s.94-.02,1.36-.06v.6c-.35-.02-.7-.03-1.09-.03v1.43c.3,0,.6-.02,.92-.05v.6c-.32-.02-.62-.03-.92-.03v1.71c.38-.15,.79-.34,1.15-.53v.58Zm2.1-.27h-.6c-.18,1.51-.97,2.01-2.24,2.5,0,0-.1-.3-.34-.56,1.12-.34,1.88-.75,2.04-1.94h-.79v-4.18h3.45v4.18h-.96v1.61c0,.22,.22,.24,.51,.24,.47,0,.55-.03,.64-.94,.25,.19,.51,.28,.51,.28-.22,1.1-.38,1.19-1.18,1.19-.7,0-1.05-.09-1.05-.71v-1.68Zm.95-3.65h-2.32v.64h2.32v-.64Zm0,1.13h-2.32v.72h2.32v-.72Zm0,1.21h-2.32v.79h2.32v-.79Z"/></g></g></svg>